<?xml version="1.0" encoding="UTF-8" standalone="no"?>
<svg
   width="24"
   height="24"
   viewBox="0 0 24 24"
   fill="none"
   version="1.1"
   id="svg6"
   sodipodi:docname="book.svg"
   inkscape:version="1.1 (c68e22c387, 2021-05-23)"
   xmlns:inkscape="http://www.inkscape.org/namespaces/inkscape"
   xmlns:sodipodi="http://sodipodi.sourceforge.net/DTD/sodipodi-0.dtd"
   xmlns="http://www.w3.org/2000/svg"
   xmlns:svg="http://www.w3.org/2000/svg">
  <defs
     id="defs10" />
  <sodipodi:namedview
     id="namedview8"
     pagecolor="#ffffff"
     bordercolor="#666666"
     borderopacity="1.0"
     inkscape:pageshadow="2"
     inkscape:pageopacity="0.0"
     inkscape:pagecheckerboard="0"
     showgrid="false"
     inkscape:zoom="11.666667"
     inkscape:cx="19.628571"
     inkscape:cy="12.042857"
     inkscape:window-width="1295"
     inkscape:window-height="745"
     inkscape:window-x="63"
     inkscape:window-y="-8"
     inkscape:window-maximized="1"
     inkscape:current-layer="svg6" />
  <path
     d="M 22.085714,7.4211186 V 19.311129 c 0,0.97 -0.79,1.86 -1.76,1.98 l -0.31,0.04 c -1.64,0.22 -3.95,0.9 -5.81,1.68 -0.65,0.27 -1.37,-0.22 -1.37,-0.93 V 8.1711186 c 0,-0.37 0.21,-0.71 0.54,-0.89 1.83,-0.99 4.6,-1.87 6.48,-2.03 h 0.06 c 1.2,0 2.17,0.97 2.17,2.17 z"
     fill="#7b7b7b"
     id="path2" />
  <path
     d="m 10.794014,7.2811186 c -1.8300197,-0.99 -4.6000197,-1.87 -6.4800197,-2.03 h -0.07 c -1.2,0 -2.17,0.97 -2.17,2.17 V 19.311129 c 0,0.97 0.79,1.86 1.76,1.98 l 0.31,0.04 c 1.64,0.22 3.95,0.9 5.81,1.68 0.6500197,0.27 1.3700197,-0.22 1.3700197,-0.93 V 8.1711186 c 0,-0.38 -0.2,-0.71 -0.53,-0.89 z M 5.0839943,10.311119 h 2.25 c 0.41,0 0.75,0.34 0.75,0.75 0,0.42 -0.34,0.75 -0.75,0.75 h -2.25 c -0.41,0 -0.75,-0.33 -0.75,-0.75 0,-0.41 0.34,-0.75 0.75,-0.75 z m 3,4.50001 h -3 c -0.41,0 -0.75,-0.33 -0.75,-0.75 0,-0.41 0.34,-0.75 0.75,-0.75 h 3 c 0.41,0 0.75,0.34 0.75,0.75 0,0.42 -0.34,0.75 -0.75,0.75 z"
     fill="#7b7b7b"
     id="path4" />
</svg>
